<svg width="18" height="21" viewBox="0 0 18 21" fill="none" xmlns="http://www.w3.org/2000/svg">
<g clip-path="url(#clip0_197_165)">
<path d="M3.53397 4.01703C3.19948 4.01703 2.87251 4.11622 2.59439 4.30205C2.31628 4.48788 2.09951 4.75201 1.97151 5.06103C1.84351 5.37006 1.81001 5.7101 1.87527 6.03816C1.94053 6.36622 2.1016 6.66757 2.33811 6.90408C2.57463 7.1406 2.87598 7.30167 3.20404 7.36693C3.5321 7.43218 3.87214 7.39869 4.18116 7.27069C4.49019 7.14269 4.75432 6.92592 4.94015 6.64781C5.12598 6.36969 5.22517 6.04271 5.22517 5.70823C5.22517 5.25969 5.04699 4.82953 4.72983 4.51237C4.41267 4.19521 3.9825 4.01703 3.53397 4.01703ZM3.53397 6.72135C3.33359 6.72135 3.13772 6.66193 2.97111 6.55061C2.8045 6.43928 2.67465 6.28106 2.59797 6.09593C2.52129 5.91081 2.50122 5.7071 2.54032 5.51058C2.57941 5.31405 2.6759 5.13353 2.81759 4.99184C2.95927 4.85015 3.13979 4.75366 3.33632 4.71457C3.53285 4.67548 3.73655 4.69554 3.92168 4.77222C4.1068 4.8489 4.26503 4.97876 4.37635 5.14537C4.48768 5.31197 4.54709 5.50785 4.54709 5.70823C4.54709 5.84127 4.52089 5.97301 4.46997 6.09593C4.41906 6.21885 4.34443 6.33054 4.25036 6.42461C4.15628 6.51869 4.04459 6.59332 3.92168 6.64423C3.79876 6.69514 3.66702 6.72135 3.53397 6.72135Z" fill="#ABB1BA"/>
<path d="M14.6225 5.37317H6.10266V6.05124H14.6225V5.37317Z" fill="#ABB1BA"/>
<path d="M3.53393 8.14925C3.19753 8.14767 2.86824 8.24598 2.58776 8.43173C2.30729 8.61747 2.08826 8.88229 1.95843 9.19263C1.8286 9.50297 1.79381 9.84487 1.85847 10.175C1.92312 10.5051 2.08432 10.8086 2.32164 11.0471C2.55895 11.2855 2.8617 11.4481 3.19152 11.5143C3.52134 11.5806 3.8634 11.5474 4.17435 11.419C4.4853 11.2906 4.75114 11.0729 4.93821 10.7933C5.12527 10.5137 5.22513 10.1848 5.22513 9.84842C5.22514 9.39915 5.04721 8.96817 4.73028 8.64974C4.41335 8.33131 3.9832 8.15136 3.53393 8.14925ZM3.53393 10.8615C3.33131 10.8631 3.1328 10.8044 2.96366 10.6928C2.79452 10.5812 2.66241 10.4218 2.58414 10.2349C2.50587 10.048 2.48498 9.84203 2.52412 9.64322C2.56327 9.44441 2.66068 9.26173 2.80396 9.11845C2.94724 8.97517 3.12992 8.87776 3.32873 8.83861C3.52755 8.79947 3.73351 8.82036 3.92041 8.89863C4.10732 8.9769 4.26671 9.10901 4.3783 9.27815C4.48989 9.44729 4.54863 9.6458 4.54706 9.84842C4.54706 10.1171 4.44032 10.3748 4.25032 10.5648C4.06032 10.7548 3.80263 10.8615 3.53393 10.8615Z" fill="#ABB1BA"/>
<path d="M14.6225 9.50543H6.10266V10.1835H14.6225V9.50543Z" fill="#ABB1BA"/>
<path d="M3.53398 12.2497C3.19724 12.2481 2.86762 12.3466 2.58698 12.5327C2.30633 12.7188 2.08731 12.9841 1.95771 13.2949C1.82812 13.6057 1.7938 13.948 1.85911 14.2783C1.92441 14.6087 2.08641 14.9122 2.32452 15.1503C2.56263 15.3884 2.86613 15.5504 3.19648 15.6157C3.52683 15.681 3.86913 15.6467 4.17994 15.5171C4.49075 15.3875 4.75604 15.1685 4.94214 14.8879C5.12824 14.6072 5.22675 14.2776 5.22518 13.9408C5.22518 13.4923 5.047 13.0622 4.72983 12.745C4.41267 12.4278 3.98251 12.2497 3.53398 12.2497ZM3.53398 14.962C3.33169 14.9635 3.13349 14.905 2.96453 14.7938C2.79556 14.6825 2.66344 14.5236 2.58494 14.3372C2.50643 14.1507 2.48506 13.9452 2.52356 13.7466C2.56205 13.548 2.65867 13.3653 2.80115 13.2217C2.94363 13.0781 3.12555 12.98 3.32384 12.94C3.52213 12.8999 3.72785 12.9197 3.91489 12.9967C4.10194 13.0738 4.26189 13.2046 4.37444 13.3727C4.487 13.5408 4.54709 13.7386 4.5471 13.9408C4.5471 14.0739 4.5209 14.2056 4.46998 14.3286C4.41907 14.4515 4.34444 14.5632 4.25036 14.6572C4.15629 14.7513 4.0446 14.8259 3.92168 14.8769C3.79877 14.9278 3.66702 14.954 3.53398 14.954V14.962Z" fill="#ABB1BA"/>
<path d="M14.6225 13.6058H6.10266V14.2838H14.6225V13.6058Z" fill="#ABB1BA"/>
<path d="M14.6863 0.594727H2.3932C1.75849 0.594727 1.14977 0.846867 0.700953 1.29568C0.25214 1.74449 0 2.35321 0 2.98793L0 17.8019C0.0125302 18.4282 0.270192 19.0247 0.717653 19.4633C1.16512 19.9018 1.76669 20.1473 2.3932 20.1472H14.6863C15.3059 20.137 15.8973 19.8869 16.3363 19.4494C16.7752 19.012 17.0273 18.4214 17.0396 17.8019V2.98793C17.0397 2.36006 16.793 1.75731 16.3528 1.30963C15.9126 0.861944 15.3141 0.605191 14.6863 0.594727V0.594727ZM16.3615 17.8019C16.3594 18.2448 16.182 18.6688 15.8681 18.9813C15.5541 19.2937 15.1292 19.4691 14.6863 19.4691H2.3932C1.95028 19.4691 1.52538 19.2937 1.21144 18.9813C0.897499 18.6688 0.72007 18.2448 0.717961 17.8019V2.98793C0.712642 2.7646 0.752044 2.54246 0.833848 2.33459C0.915653 2.12671 1.03821 1.9373 1.1943 1.77749C1.35039 1.61768 1.53687 1.4907 1.74277 1.40403C1.94866 1.31735 2.16981 1.27274 2.3932 1.2728H14.6863C14.9097 1.27274 15.1308 1.31735 15.3367 1.40403C15.5426 1.4907 15.7291 1.61768 15.8852 1.77749C16.0413 1.9373 16.1638 2.12671 16.2456 2.33459C16.3275 2.54246 16.3669 2.7646 16.3615 2.98793V17.8019Z" fill="#ABB1BA"/>
</g>
<defs>
<clipPath id="clip0_197_165">
<rect width="17.0396" height="19.5525" fill="white" transform="translate(0 0.594727)"/>
</clipPath>
</defs>
</svg>
