<svg width="29" height="29" viewBox="29 29" fill="none" xmlns="http://www.w3.org/2000/svg">
<path d="M14.5 0C11.6322 0 8.82875 0.85041 6.44424 2.44369C4.05972 4.03697 2.20122 6.30156 1.10375 8.95109C0.00628269 11.6006 -0.280866 14.5161 0.27862 17.3288C0.838105 20.1415 2.2191 22.7252 4.24696 24.753C6.27482 26.7809 8.85847 28.1619 11.6712 28.7214C14.4839 29.2809 17.3994 28.9937 20.0489 27.8962C22.6984 26.7988 24.963 24.9403 26.5563 22.5558C28.1496 20.1713 29 17.3678 29 14.5C29 10.6544 27.4723 6.96623 24.753 4.24695C22.0338 1.52767 18.3456 0 14.5 0ZM9.06782 17.9087H8.16955C7.81497 17.9087 7.69678 17.7905 7.69678 17.4359V14.2163C7.68662 14.1172 7.69852 14.017 7.73161 13.923C7.76471 13.8289 7.81819 13.7434 7.88822 13.6725C7.95825 13.6015 8.0431 13.547 8.13669 13.5127C8.23028 13.4784 8.3303 13.4652 8.42958 13.4741H9.05837C9.07255 14.9633 9.06782 16.4336 9.06782 17.9087ZM19.2419 18.8212C19.2524 18.9229 19.24 19.0256 19.2056 19.1219C19.1712 19.2182 19.1158 19.3056 19.0432 19.3777C18.9707 19.4497 18.883 19.5047 18.7865 19.5384C18.69 19.5722 18.5871 19.584 18.4855 19.5729C18.2444 19.5729 18.0127 19.5729 17.7574 19.5729C17.5021 19.5729 17.5399 19.6343 17.5399 19.7951C17.5399 20.3671 17.5399 20.9345 17.5399 21.5018C17.5557 21.6093 17.5462 21.719 17.5121 21.8223C17.4781 21.9255 17.4205 22.0193 17.3439 22.0964C17.2672 22.1735 17.1737 22.2317 17.0707 22.2663C16.9677 22.301 16.858 22.3111 16.7504 22.296H16.2209C16.125 22.2995 16.0295 22.2829 15.9404 22.2473C15.8512 22.2118 15.7705 22.158 15.7033 22.0895C15.6362 22.021 15.584 21.9392 15.5502 21.8494C15.5164 21.7596 15.5017 21.6638 15.507 21.568C15.507 20.977 15.507 20.3813 15.507 19.7903C15.507 19.6154 15.4503 19.5729 15.2848 19.5729C14.7506 19.5729 14.2116 19.5729 13.6774 19.5729C13.5024 19.5729 13.4599 19.6343 13.4599 19.7998C13.4599 20.3908 13.4599 20.9817 13.4599 21.5774C13.4659 21.6711 13.4522 21.7651 13.4197 21.8531C13.3871 21.9412 13.3365 22.0215 13.271 22.0887C13.2055 22.156 13.1266 22.2088 13.0394 22.2437C12.9523 22.2786 12.8587 22.2948 12.7649 22.2913C12.5522 22.2913 12.3394 22.2913 12.1314 22.2913C12.0413 22.2933 11.9517 22.2769 11.8681 22.243C11.7846 22.2091 11.7088 22.1585 11.6455 22.0944C11.5822 22.0302 11.5327 21.9537 11.5 21.8697C11.4673 21.7857 11.4521 21.6959 11.4553 21.6058C11.4553 21.0038 11.4553 20.4034 11.4553 19.8045C11.4553 19.6296 11.4128 19.5587 11.2237 19.5681C11.0346 19.5776 10.7084 19.5681 10.4483 19.5681C10.3566 19.5722 10.2651 19.5571 10.1795 19.5238C10.0939 19.4905 10.0162 19.4398 9.9513 19.3749C9.88638 19.31 9.83568 19.2323 9.80242 19.1467C9.76915 19.0612 9.75405 18.9696 9.75807 18.8779C9.75807 18.5564 9.75807 18.2302 9.75807 17.904C9.75807 16.4289 9.75807 14.9586 9.75807 13.4835H10.0512H19.2561V17.8945C19.2514 18.2018 19.2514 18.5139 19.2419 18.8212ZM19.4121 7.34219C19.0245 7.73459 18.6321 8.11754 18.2444 8.50521C18.5276 8.91971 18.7654 9.36353 18.9535 9.82898C19.1781 10.523 19.2774 11.2514 19.2467 11.9801C19.2467 12.0888 19.1899 12.1219 19.0954 12.1172H18.9488C15.9798 12.1172 13.0108 12.1172 10.0417 12.1172C9.78644 12.1172 9.74862 12.0416 9.74389 11.8052C9.67652 10.6563 10.0108 9.51977 10.6894 8.59031C10.7053 8.56239 10.7165 8.53204 10.7225 8.50049C10.3349 8.11281 9.93773 7.72514 9.55005 7.33273C9.36094 7.14362 9.35149 6.95451 9.5075 6.80323C9.66352 6.65194 9.83845 6.66612 10.0228 6.84578C10.4058 7.22872 10.784 7.62113 11.1669 8.00407C11.4648 7.81496 11.7201 7.56912 12.0227 7.38474C12.8822 6.85799 13.8875 6.61975 14.892 6.7048C15.8965 6.78985 16.8474 7.19374 17.6061 7.85751L17.7763 7.98989L18.9204 6.83632C19.1143 6.64721 19.3081 6.63303 19.4547 6.78432C19.493 6.8215 19.5227 6.86666 19.5416 6.91658C19.5605 6.96651 19.5682 7.01999 19.5641 7.07322C19.5601 7.12646 19.5443 7.17815 19.5181 7.22463C19.4918 7.27111 19.4556 7.31124 19.4121 7.34219ZM20.8588 17.8945C20.5515 17.8945 20.2395 17.8945 19.9133 17.8945V13.4835H20.5468C20.6419 13.4761 20.7374 13.4889 20.8272 13.5211C20.917 13.5532 20.999 13.604 21.0677 13.6701C21.1365 13.7362 21.1905 13.8161 21.2262 13.9045C21.2619 13.9929 21.2785 14.0879 21.2749 14.1832C21.2749 15.2848 21.2749 16.3911 21.2749 17.4927C21.2749 17.7574 21.1472 17.8851 20.8588 17.8945Z" fill="#A4A4A6"/>
</svg>
