<svg width="29" height="31" viewBox="29 31" fill="none" xmlns="http://www.w3.org/2000/svg">
<path d="M14.5 0C11.6322 0 8.82874 0.909059 6.44422 2.61222C4.05971 4.31538 2.20121 6.73615 1.10374 9.56841C0.00626743 12.4007 -0.280881 15.5172 0.278605 18.5239C0.83809 21.5306 2.21908 24.2924 4.24694 26.4602C6.2748 28.6279 8.85846 30.1041 11.6712 30.7022C14.4839 31.3002 17.3994 30.9933 20.0489 29.8201C22.6984 28.647 24.963 26.6603 26.5563 24.1113C28.1496 21.5624 29 18.5656 29 15.5C29 11.3891 27.4723 7.44666 24.753 4.53985C22.0338 1.63303 18.3456 0 14.5 0ZM14.2636 10.1076C14.3124 9.3591 14.5611 8.64128 14.9801 8.03931C15.3991 7.43734 15.9708 6.97649 16.6275 6.71145C16.8592 6.62108 17.0982 6.55342 17.3414 6.50929C17.4832 6.47897 17.5068 6.50929 17.5116 6.66091C17.5469 7.26412 17.4449 7.86749 17.2143 8.41935C16.9838 8.97121 16.6316 9.45512 16.1878 9.82964C15.7722 10.2124 15.2644 10.4628 14.7222 10.5523C14.2683 10.613 14.2541 10.613 14.2636 10.1076ZM21.2749 19.1488C20.77 20.4048 20.0717 21.5613 19.2088 22.5703C18.8462 23.0376 18.3463 23.36 17.7905 23.485C17.3445 23.5529 16.8899 23.4643 16.4951 23.2323C15.7677 22.8307 14.9351 22.7025 14.1312 22.8684C13.8053 22.9482 13.4883 23.0651 13.1857 23.2172C12.7427 23.4815 12.2268 23.5712 11.7283 23.4705C11.2297 23.3699 10.78 23.0852 10.4578 22.6663C9.42313 21.5101 8.64865 20.117 8.19318 18.5929C7.88787 17.6358 7.72825 16.6325 7.7204 15.6213C7.67179 14.3972 8.01905 13.1925 8.70377 12.21C9.35642 11.2757 10.3288 10.656 11.408 10.4866C12.0629 10.4288 12.7211 10.5397 13.3275 10.8101C13.6897 10.9644 14.0649 11.0812 14.448 11.1588C14.9597 11.2176 15.4768 11.1304 15.9467 10.9061C16.4791 10.6547 17.0489 10.5059 17.6298 10.4664C18.2388 10.4534 18.8424 10.5918 19.3929 10.8707C19.9435 11.1496 20.4258 11.5613 20.8021 12.0735C20.9297 12.2251 20.8021 12.2403 20.7312 12.2908C20.3227 12.5496 19.9712 12.8992 19.7004 13.3161C19.4295 13.7329 19.2458 14.2071 19.1615 14.7066C19.0035 15.5435 19.1163 16.4131 19.4814 17.1725C19.8465 17.9319 20.4422 18.5362 21.1708 18.886C21.2749 18.9416 21.3363 18.977 21.2749 19.1488Z" fill="#A4A4A6"/>
</svg>
