<svg width="62" height="62" viewBox="62 62" fill="none" xmlns="http://www.w3.org/2000/svg">
<path d="M30.6669 0.294067C24.6437 0.294067 18.7558 2.08015 13.7477 5.42645C8.7396 8.77275 4.83627 13.529 2.5313 19.0937C0.22633 24.6584 -0.376756 30.7816 0.798309 36.689C1.97337 42.5965 4.87381 48.0228 9.13284 52.2819C13.3919 56.5409 18.8182 59.4413 24.7257 60.6164C30.6331 61.7915 36.7563 61.1884 42.321 58.8834C47.8857 56.5784 52.6419 52.6751 55.9883 47.667C59.3345 42.6589 61.1206 36.771 61.1206 30.7478C61.1206 22.671 57.9121 14.9249 52.2009 9.21376C46.4897 3.50258 38.7437 0.294067 30.6669 0.294067ZM30.1704 20.153C30.2729 18.6824 30.7952 17.2721 31.6752 16.0894C32.5552 14.9066 33.756 14.0012 35.1352 13.4804C35.6219 13.3029 36.1237 13.1699 36.6345 13.0832C36.9324 13.0237 36.982 13.0832 36.992 13.3811C37.0661 14.5663 36.8519 15.7518 36.3677 16.836C35.8835 17.9203 35.1437 18.8711 34.2117 19.6069C33.3388 20.359 32.2723 20.8509 31.1336 21.0268C30.1803 21.146 30.1506 21.146 30.1704 20.153ZM44.8958 37.9169C43.8356 40.3846 42.3689 42.6569 40.5567 44.6392C39.7951 45.5574 38.7452 46.1909 37.5778 46.4364C36.6411 46.5699 35.6863 46.3957 34.8571 45.9399C33.3295 45.1509 31.5806 44.899 29.8924 45.225C29.2078 45.3817 28.5421 45.6114 27.9065 45.9101C26.976 46.4296 25.8927 46.6058 24.8456 46.408C23.7984 46.2102 22.854 45.6509 22.1772 44.8278C20.0042 42.5562 18.3776 39.8192 17.421 36.8247C16.7797 34.9441 16.4445 32.9729 16.428 30.9861C16.3259 28.581 17.0553 26.2142 18.4933 24.2837C19.8641 22.4481 21.9064 21.2306 24.173 20.8978C25.5483 20.7842 26.9307 21.0021 28.2044 21.5332C28.9651 21.8364 29.7531 22.0659 30.5577 22.2184C31.6323 22.3339 32.7184 22.1626 33.7053 21.7219C34.8235 21.228 36.0202 20.9355 37.2402 20.858C38.5194 20.8325 39.7871 21.1044 40.9433 21.6523C42.0996 22.2003 43.1127 23.0093 43.9029 24.0156C44.171 24.3135 43.9029 24.3433 43.754 24.4426C42.8962 24.951 42.1578 25.6379 41.589 26.4569C41.0202 27.2758 40.6343 28.2076 40.4574 29.1889C40.1254 30.8333 40.3623 32.5418 41.1291 34.0339C41.8959 35.526 43.1471 36.7132 44.6774 37.4006C44.8958 37.5098 45.0249 37.5793 44.8958 37.9169Z" fill="#A4A4A6"/>
</svg>
