<svg width="48" height="31" viewBox="0 0 48 31" fill="none" xmlns="http://www.w3.org/2000/svg">
<g clip-path="url(#clip0_197_951)">
<path d="M22.8492 22.9047V13.3022C22.8476 12.9322 22.7303 12.5698 22.5103 12.255C22.2903 11.9402 21.9762 11.6852 21.6026 11.5182L12.887 7.61869C12.8028 7.58224 12.7095 7.56535 12.6159 7.56962C12.5222 7.57388 12.4314 7.59916 12.3519 7.64306C12.2724 7.68696 12.2069 7.74805 12.1615 7.82054C12.1161 7.89303 12.0924 7.97455 12.0926 8.05738V17.6599C12.0801 18.0362 12.1912 18.4077 12.4124 18.7295C12.6336 19.0513 12.9556 19.3095 13.3393 19.4732L22.0549 23.3727C22.1417 23.4104 22.2381 23.4274 22.3346 23.4218C22.4311 23.4163 22.5242 23.3884 22.6047 23.341C22.6852 23.2936 22.7501 23.2283 22.793 23.1518C22.836 23.0752 22.8553 22.99 22.8492 22.9047Z" fill="#F0F4F7"/>
<path d="M35.3601 7.58941L26.159 11.6741C25.8851 11.7962 25.6546 11.9828 25.493 12.2133C25.3314 12.4439 25.245 12.7093 25.2433 12.9805V23.0217C25.2442 23.0913 25.2651 23.1596 25.3042 23.22C25.3432 23.2805 25.399 23.3312 25.4664 23.3673C25.5337 23.4034 25.6104 23.4237 25.6891 23.4264C25.7679 23.429 25.8461 23.4139 25.9163 23.3824L35.0953 19.3074C35.3837 19.1976 35.6304 19.0172 35.8064 18.7874C35.9823 18.5576 36.0801 18.2882 36.0882 18.0108V7.95986C36.0959 7.88216 36.0783 7.80414 36.0375 7.73499C35.9966 7.66583 35.9343 7.60842 35.8578 7.5695C35.7813 7.53059 35.6938 7.51179 35.6057 7.51531C35.5175 7.51884 35.4323 7.54454 35.3601 7.58941Z" fill="#F0F4F7"/>
<path d="M13.8579 5.66897L23.2906 9.87068C23.5305 9.97627 23.7949 10.0312 24.0629 10.0312C24.3309 10.0312 24.5953 9.97627 24.8352 9.87068L34.2679 5.66897C34.3077 5.65242 34.3413 5.62622 34.3649 5.59343C34.3884 5.56063 34.4009 5.52259 34.4009 5.48374C34.4009 5.4449 34.3884 5.40686 34.3649 5.37406C34.3413 5.34126 34.3077 5.31506 34.2679 5.29852L24.8352 1.1163C24.5988 1.00617 24.3356 0.948608 24.0684 0.948608C23.8012 0.948608 23.538 1.00617 23.3017 1.1163L13.8579 5.29852C13.8213 5.31741 13.7909 5.34445 13.7698 5.37695C13.7487 5.40945 13.7375 5.44627 13.7375 5.48374C13.7375 5.52122 13.7487 5.55804 13.7698 5.59054C13.7909 5.62303 13.8213 5.65008 13.8579 5.66897Z" fill="#F0F4F7"/>
<path d="M24.0629 28.091C11.0115 28.091 0.784424 24.6595 0.784424 20.292C0.784424 18.1863 3.1233 16.2366 7.40389 14.7938C7.47243 14.765 7.54696 14.749 7.6228 14.7468C7.69865 14.7447 7.77419 14.7564 7.84469 14.7812C7.91519 14.806 7.97915 14.8434 8.03255 14.891C8.08595 14.9387 8.12765 14.9955 8.15505 15.0581C8.18244 15.1206 8.19494 15.1875 8.19176 15.2544C8.18858 15.3214 8.16979 15.3871 8.13656 15.4474C8.10334 15.5077 8.05639 15.5613 7.99866 15.6048C7.94093 15.6484 7.87366 15.6809 7.80105 15.7004C4.02796 16.958 1.88767 18.625 1.88767 20.2725C1.88767 23.9771 12.0485 27.0967 24.0629 27.0967C36.0772 27.0967 46.2381 23.9576 46.2381 20.2725C46.2381 18.664 44.2743 17.075 40.7218 15.8076C40.5858 15.7585 40.4774 15.6636 40.4205 15.5439C40.3636 15.4241 40.3629 15.2893 40.4185 15.1691C40.474 15.0489 40.5814 14.9531 40.7169 14.9028C40.8525 14.8525 41.005 14.8519 41.1411 14.901C45.1459 16.3341 47.3523 18.2351 47.3523 20.2725C47.3413 24.6595 37.1142 28.091 24.0629 28.091Z" fill="#F0F4F7"/>
<path d="M23.2354 30.3333C23.164 30.3347 23.0929 30.3234 23.0266 30.2999C22.9602 30.2765 22.8999 30.2414 22.8493 30.1968C22.8032 30.1473 22.7689 30.0901 22.7483 30.0287C22.7278 29.9672 22.7214 29.9027 22.7296 29.839C22.7379 29.7754 22.7605 29.7138 22.7962 29.658C22.832 29.6023 22.88 29.5534 22.9375 29.5144L25.6295 27.6329L22.9596 25.9658C22.9 25.9289 22.8492 25.8819 22.8102 25.8275C22.7712 25.7731 22.7448 25.7124 22.7325 25.649C22.7202 25.5856 22.7222 25.5206 22.7385 25.4578C22.7547 25.3951 22.7849 25.3358 22.8272 25.2834C22.9135 25.179 23.0424 25.1085 23.1865 25.0866C23.3307 25.0648 23.4788 25.0934 23.5995 25.1664L26.9092 27.2137C26.9802 27.2553 27.0385 27.3118 27.0789 27.3781C27.1193 27.4445 27.1406 27.5186 27.1409 27.5939C27.1458 27.6706 27.1292 27.7472 27.0927 27.8169C27.0561 27.8866 27.0007 27.9473 26.9313 27.9936L23.6216 30.2845C23.5039 30.3418 23.3666 30.3591 23.2354 30.3333Z" fill="#F0F4F7"/>
<path d="M17.3993 11.3135C17.2188 11.2425 17.019 11.2185 16.8236 11.2444C16.6281 11.2703 16.4451 11.345 16.2961 11.4598C16.1406 11.579 16.0259 11.7344 15.9651 11.9082C15.8859 12.1153 15.8485 12.3331 15.8548 12.5516V13.2243L16.8808 13.5655V12.8928C16.8783 12.775 16.9168 12.6593 16.9911 12.5614C17.0573 12.4541 17.2007 12.4249 17.3773 12.4834C17.5348 12.5376 17.6669 12.6372 17.7524 12.7661C17.8481 12.9038 17.8978 13.0627 17.8958 13.2243V14.2966C17.8958 14.5989 17.8958 14.7743 17.7303 14.8231C17.5119 14.851 17.289 14.8205 17.0904 14.7353V15.7785C17.2373 15.8184 17.3781 15.8741 17.5096 15.9442C17.6075 15.9905 17.6909 16.0575 17.7524 16.1392C17.8203 16.2196 17.8657 16.3132 17.8848 16.4121C17.9038 16.5481 17.9038 16.6856 17.8848 16.8216V18.0012C17.9082 18.1526 17.8647 18.3062 17.7634 18.4301C17.7194 18.4749 17.66 18.5058 17.5943 18.5181C17.5286 18.5304 17.4602 18.5235 17.3993 18.4984C17.2355 18.4382 17.1021 18.3273 17.0242 18.1864C16.927 18.035 16.8775 17.8633 16.8808 17.6892V17.075L15.8438 16.7338V17.4065C15.8503 17.7045 15.906 18.0001 16.0092 18.2839C16.1028 18.5146 16.2288 18.7341 16.3843 18.937C16.5214 19.1179 16.6932 19.2763 16.8918 19.405C17.0471 19.5174 17.2223 19.6063 17.4104 19.6682C17.5327 19.7133 17.6639 19.7364 17.7965 19.7364C17.929 19.7364 18.0603 19.7133 18.1826 19.6682C18.3831 19.5869 18.5548 19.4588 18.6791 19.2977L18.8004 19.0735C18.8365 18.9817 18.8623 18.887 18.8777 18.7908C18.8859 18.6479 18.8859 18.5048 18.8777 18.3619C18.8777 18.1864 18.8777 17.9622 18.8777 17.699C18.8777 17.4357 18.8777 17.1628 18.8777 16.9678C18.865 16.7975 18.8392 16.6281 18.8004 16.4609C18.7553 16.314 18.6886 16.1731 18.6019 16.0417C18.4857 15.8897 18.3605 15.7432 18.2268 15.603C18.3489 15.5621 18.4641 15.5063 18.5688 15.4372C18.6519 15.3739 18.7163 15.2936 18.7563 15.2033C18.8044 15.0675 18.8304 14.9263 18.8335 14.7841V14.0919C18.8335 13.8385 18.8335 13.6045 18.8335 13.4193C18.8335 13.234 18.7784 13.0683 18.7453 12.9416C18.7159 12.8112 18.6716 12.6838 18.6129 12.5614C18.5607 12.445 18.5018 12.3311 18.4364 12.2202C18.3119 12.0332 18.1679 11.8569 18.0061 11.6937C17.8134 11.5003 17.5659 11.3556 17.289 11.2745" fill="#282C45"/>
<path d="M30.4175 18.6933V12.7563L30.8809 12.5809C31.1788 12.4639 31.3884 12.4736 31.4987 12.5809C31.6406 12.7815 31.7028 13.0182 31.6752 13.2535V17.153C31.6888 17.4438 31.6284 17.7336 31.4987 18.0012C31.3752 18.221 31.1625 18.3916 30.903 18.4789L30.4286 18.6543M30.8588 11.4403L29.3694 12.0154L29.4687 20.1751L30.8809 19.639C31.4553 19.4157 31.9344 19.0367 32.2489 18.5568C32.587 17.9833 32.7469 17.3408 32.7123 16.6948V12.8928C32.7423 12.648 32.7168 12.4003 32.6373 12.1643C32.5577 11.9283 32.4257 11.7086 32.2489 11.5182C32.053 11.4026 31.8226 11.3408 31.587 11.3408C31.3513 11.3408 31.121 11.4026 30.925 11.5182" fill="#282C45"/>
</g>
<defs>
<clipPath id="clip0_197_951">
<rect width="46.5569" height="29.3827" fill="white" transform="translate(0.784424 0.950562)"/>
</clipPath>
</defs>
</svg>
