<svg width="30" height="14" viewBox="0 0 30 14" fill="none" xmlns="http://www.w3.org/2000/svg">
<path d="M22.2054 0.00402322H7.28344C5.32934 0.0655632 3.47743 0.829592 2.11852 2.13487C0.759608 3.44015 0 5.18457 0 7C0 8.81543 0.759608 10.5599 2.11852 11.8651C3.47743 13.1704 5.32934 13.9344 7.28344 13.996H22.2054C23.2164 14.0278 24.2239 13.8704 25.168 13.5332C26.1121 13.1959 26.9735 12.6857 27.7007 12.0329C28.428 11.3802 29.0064 10.5982 29.4014 9.7335C29.7964 8.86885 30 7.93923 30 7C30 6.06077 29.7964 5.13115 29.4014 4.2665C29.0064 3.40184 28.428 2.61984 27.7007 1.96706C26.9735 1.31428 26.1121 0.804071 25.168 0.466824C24.2239 0.129576 23.2164 -0.027815 22.2054 0.00402322ZM20.9316 3.76954C21.1681 3.76954 21.3993 3.83466 21.596 3.95667C21.7926 4.07867 21.9459 4.25209 22.0364 4.45497C22.1269 4.65786 22.1506 4.88112 22.1045 5.0965C22.0583 5.31189 21.9444 5.50973 21.7772 5.66502C21.61 5.8203 21.3969 5.92605 21.1649 5.9689C20.9329 6.01174 20.6925 5.98975 20.474 5.90571C20.2555 5.82167 20.0687 5.67935 19.9373 5.49676C19.8059 5.31416 19.7358 5.09949 19.7358 4.87989C19.7358 4.5854 19.8618 4.30298 20.086 4.09475C20.3103 3.88652 20.6145 3.76954 20.9316 3.76954ZM8.68725 7.9615H5.81896V6.93966H8.67858L8.68725 7.9615ZM10.3424 11.1316H9.28517V8.47644H10.3857L10.3424 11.1316ZM10.3424 6.42471H9.28517V3.76954H10.3857L10.3424 6.42471ZM13.7566 7.9615H10.897V6.93966H13.7566V7.9615ZM18.5486 8.09023C18.3117 8.09182 18.0797 8.02806 17.8819 7.90703C17.6841 7.78599 17.5295 7.61314 17.4376 7.4104C17.3458 7.20766 17.3209 6.98416 17.366 6.76824C17.4112 6.55233 17.5244 6.35373 17.6913 6.19764C17.8582 6.04155 18.0712 5.935 18.3034 5.8915C18.5356 5.848 18.7765 5.86952 18.9955 5.95331C19.2146 6.03711 19.4018 6.17942 19.5336 6.36218C19.6654 6.54495 19.7358 6.75994 19.7358 6.97989C19.7358 7.27298 19.611 7.55419 19.3886 7.76219C19.1662 7.97019 18.8643 8.08811 18.5486 8.09023ZM20.9316 10.3431C20.6951 10.3431 20.4639 10.278 20.2672 10.156C20.0706 10.034 19.9173 9.86056 19.8268 9.65767C19.7363 9.45478 19.7126 9.23153 19.7588 9.01614C19.8049 8.80076 19.9188 8.60291 20.086 8.44763C20.2533 8.29234 20.4663 8.18659 20.6983 8.14375C20.9303 8.10091 21.1707 8.1229 21.3892 8.20693C21.6078 8.29097 21.7945 8.43329 21.9259 8.61588C22.0573 8.79848 22.1275 9.01315 22.1275 9.23276C22.1275 9.52724 22.0015 9.80966 21.7772 10.0179C21.5529 10.2261 21.2488 10.3431 20.9316 10.3431ZM23.3233 8.09023C23.0868 8.09023 22.8556 8.02511 22.6589 7.9031C22.4623 7.7811 22.309 7.60769 22.2185 7.4048C22.128 7.20191 22.1043 6.97865 22.1504 6.76327C22.1966 6.54788 22.3105 6.35004 22.4777 6.19475C22.645 6.03947 22.858 5.93372 23.09 5.89088C23.322 5.84803 23.5624 5.87002 23.7809 5.95406C23.9994 6.0381 24.1862 6.18042 24.3176 6.36301C24.449 6.54561 24.5191 6.76028 24.5191 6.97989C24.5191 7.27437 24.3931 7.55679 24.1689 7.76502C23.9446 7.97325 23.6405 8.09023 23.3233 8.09023Z" fill="url(#paint0_linear_197_519)"/>
<defs>
<linearGradient id="paint0_linear_197_519" x1="27.5" y1="1.33595e-06" x2="11.5107" y2="1.38131" gradientUnits="userSpaceOnUse">
<stop stop-color="#7CF153"/>
<stop offset="1" stop-color="#29B751"/>
</linearGradient>
</defs>
</svg>
