<svg width="15" height="15" viewBox="0 0 15 15" fill="none" xmlns="http://www.w3.org/2000/svg">
<path d="M7.5 0C6.01664 0 4.5666 0.439867 3.33323 1.26398C2.09986 2.08809 1.13856 3.25943 0.570907 4.62987C0.00324962 6.00032 -0.145275 7.50832 0.144114 8.96317C0.433503 10.418 1.14781 11.7544 2.1967 12.8033C3.2456 13.8522 4.58197 14.5665 6.03683 14.8559C7.49168 15.1453 8.99968 14.9967 10.3701 14.4291C11.7406 13.8614 12.9119 12.9001 13.736 11.6668C14.5601 10.4334 15 8.98336 15 7.5C15 5.51087 14.2098 3.60322 12.8033 2.1967C11.3968 0.790176 9.48913 0 7.5 0V0ZM7.25712 12.9244L4.54122 7.54416L7.25712 8.15505V12.9244ZM7.25712 7.54416L4.61482 6.94799L7.25712 2.05348V7.54416ZM7.72817 12.9244V8.15505L10.3999 7.65456L7.72817 12.9244ZM7.72817 7.55152V2.04612L10.4367 7.04367L7.72817 7.55152Z" fill="url(#paint0_linear_197_515)"/>
<defs>
<linearGradient id="paint0_linear_197_515" x1="11" y1="-4" x2="-2.00882" y2="-0.327616" gradientUnits="userSpaceOnUse">
<stop stop-color="#BC68FE"/>
<stop offset="1" stop-color="#6F31D6"/>
</linearGradient>
</defs>
</svg>
