<svg width="27" height="14" viewBox="0 0 27 14" fill="none" xmlns="http://www.w3.org/2000/svg">
<path d="M18.993 0.00413585H7.24235C6.30326 -0.0283968 5.36724 0.128474 4.49006 0.465399C3.61289 0.802323 2.81253 1.3124 2.13669 1.96524C1.46085 2.61807 0.923368 3.40029 0.556276 4.26527C0.189184 5.13025 0 6.06029 0 6.99994C0 7.93959 0.189184 8.86963 0.556276 9.73461C0.923368 10.5996 1.46085 11.3818 2.13669 12.0346C2.81253 12.6875 3.61289 13.1976 4.49006 13.5345C5.36724 13.8714 6.30326 14.0283 7.24235 13.9957H18.993C19.932 14.0283 20.8681 13.8714 21.7452 13.5345C22.6224 13.1976 23.4228 12.6875 24.0986 12.0346C24.7745 11.3818 25.3119 10.5996 25.679 9.73461C26.0461 8.86963 26.2353 7.93959 26.2353 6.99994C26.2353 6.06029 26.0461 5.13025 25.679 4.26527C25.3119 3.40029 24.7745 2.61807 24.0986 1.96524C23.4228 1.3124 22.6224 0.802323 21.7452 0.465399C20.8681 0.128474 19.932 -0.0283968 18.993 0.00413585ZM13.1177 4.06649H19.0433C19.1546 4.06649 19.2614 4.1107 19.3401 4.1894C19.4188 4.2681 19.463 4.37485 19.463 4.48615C19.463 4.59745 19.4188 4.7042 19.3401 4.7829C19.2614 4.8616 19.1546 4.90581 19.0433 4.90581H13.126C13.0147 4.90581 12.908 4.8616 12.8293 4.7829C12.7506 4.7042 12.7064 4.59745 12.7064 4.48615C12.7064 4.37485 12.7506 4.2681 12.8293 4.1894C12.908 4.1107 13.0147 4.06649 13.126 4.06649H13.1177ZM7.69559 11.0413C6.88146 11.043 6.08515 10.803 5.40754 10.3517C4.72992 9.90042 4.20149 9.25818 3.88916 8.50634C3.57684 7.7545 3.49469 6.92688 3.65311 6.12831C3.81153 5.32974 4.2034 4.59616 4.77908 4.02048C5.35476 3.4448 6.08834 3.05293 6.88691 2.89451C7.68548 2.73609 8.5131 2.81824 9.26494 3.13056C10.0168 3.44288 10.659 3.97132 11.1103 4.64894C11.5616 5.32655 11.8016 6.12286 11.7999 6.93699C11.7999 8.02552 11.3675 9.06947 10.5978 9.83918C9.82807 10.6089 8.78412 11.0413 7.69559 11.0413ZM17.6836 9.50533H13.126C13.0214 9.50533 12.9211 9.46377 12.8471 9.38979C12.7731 9.31581 12.7316 9.21547 12.7316 9.11085C12.7315 9.00544 12.7728 8.90422 12.8466 8.8289C12.9203 8.75358 13.0207 8.71017 13.126 8.70797H17.6836C17.789 8.71017 17.8893 8.75358 17.9631 8.8289C18.0368 8.90422 18.0781 9.00544 18.0781 9.11085C18.0781 9.21547 18.0365 9.31581 17.9625 9.38979C17.8886 9.46377 17.7882 9.50533 17.6836 9.50533ZM21.1081 7.26433H13.0085C12.9031 7.26435 12.8019 7.22306 12.7266 7.14931C12.6513 7.07556 12.6079 6.97523 12.6057 6.86984C12.6078 6.76367 12.6509 6.66243 12.726 6.58734C12.8011 6.51225 12.9024 6.46911 13.0085 6.46697H21.1081C21.2134 6.46916 21.3138 6.51258 21.3875 6.58789C21.4613 6.66321 21.5026 6.76443 21.5025 6.86984C21.5025 6.92165 21.4923 6.97294 21.4725 7.02081C21.4527 7.06867 21.4236 7.11216 21.387 7.14879C21.3504 7.18542 21.3069 7.21448 21.259 7.2343C21.2112 7.25412 21.1599 7.26433 21.1081 7.26433Z" fill="url(#paint0_linear_197_507)"/>
<defs>
<linearGradient id="paint0_linear_197_507" x1="29.5" y1="-4.00006" x2="1.35143" y2="-3.24713" gradientUnits="userSpaceOnUse">
<stop stop-color="#F9B131"/>
<stop offset="1" stop-color="#E15C24"/>
</linearGradient>
</defs>
</svg>
