<svg width="23" height="23" viewBox="0 0 23 23" fill="none" xmlns="http://www.w3.org/2000/svg">
<g clip-path="url(#clip0_197_148)">
<path d="M11.4801 0.796875C9.33429 0.796875 7.23671 1.43317 5.45257 2.62529C3.66843 3.81742 2.27786 5.51183 1.45671 7.49426C0.63556 9.47669 0.42071 11.6581 0.839328 13.7626C1.25795 15.8672 2.29123 17.8003 3.80852 19.3176C5.32581 20.8349 7.25895 21.8682 9.36348 22.2868C11.468 22.7054 13.6494 22.4906 15.6319 21.6694C17.6143 20.8483 19.3087 19.4577 20.5008 17.6736C21.693 15.8894 22.3292 13.7918 22.3292 11.6461C22.3292 8.76868 21.1862 6.00915 19.1516 3.97453C17.117 1.93991 14.3574 0.796875 11.4801 0.796875V0.796875ZM11.4801 21.538C9.52362 21.538 7.61112 20.9578 5.9844 19.8709C4.35769 18.784 3.08982 17.239 2.34112 15.4315C1.59243 13.624 1.39653 11.6351 1.77822 9.71625C2.1599 7.79741 3.10201 6.03484 4.48542 4.65143C5.86883 3.26802 7.6314 2.32591 9.55024 1.94423C11.4691 1.56255 13.458 1.75844 15.2655 2.50713C17.073 3.25583 18.6179 4.5237 19.7049 6.15042C20.7918 7.77713 21.372 9.68963 21.372 11.6461C21.372 14.2696 20.3298 16.7856 18.4747 18.6407C16.6196 20.4958 14.1036 21.538 11.4801 21.538V21.538Z" fill="#ABB1BA"/>
<path d="M13.0037 8.862C13.0037 8.98895 13.0541 9.11069 13.1439 9.20045C13.2336 9.29021 13.3554 9.34064 13.4823 9.34064H14.7428L11.8869 12.1965L9.89253 10.2022L5.96768 14.1031C5.88235 14.1922 5.83472 14.3108 5.83472 14.4342C5.83472 14.5575 5.88235 14.6761 5.96768 14.7652C6.01029 14.8114 6.06216 14.848 6.11989 14.8728C6.17762 14.8975 6.23992 14.9098 6.30272 14.9088C6.43139 14.9074 6.55444 14.8559 6.64575 14.7652L9.89253 11.5743L11.8869 13.5686L15.3969 10.0586V11.2712C15.3969 11.334 15.4093 11.3963 15.4333 11.4543C15.4574 11.5124 15.4926 11.5652 15.5371 11.6096C15.5815 11.6541 15.6343 11.6893 15.6924 11.7134C15.7504 11.7374 15.8127 11.7498 15.8755 11.7498C15.9384 11.7498 16.0006 11.7374 16.0587 11.7134C16.1168 11.6893 16.1695 11.6541 16.214 11.6096C16.2584 11.5652 16.2937 11.5124 16.3177 11.4543C16.3418 11.3963 16.3542 11.334 16.3542 11.2712V8.38336H13.4823C13.3554 8.38336 13.2336 8.43379 13.1439 8.52355C13.0541 8.61331 13.0037 8.73506 13.0037 8.862Z" fill="#ABB1BA"/>
</g>
<defs>
<clipPath id="clip0_197_148">
<rect width="21.6984" height="21.6984" fill="white" transform="translate(0.630859 0.796875)"/>
</clipPath>
</defs>
</svg>
