<svg width="21" height="23" viewBox="0 0 21 23" fill="none" xmlns="http://www.w3.org/2000/svg">
<path d="M18.5077 8.69643C18.9486 8.42385 19.2797 8.00678 19.4436 7.51741C19.6075 7.02804 19.5939 6.49718 19.4052 6.01671C19.2164 5.53625 18.8645 5.13642 18.4101 4.88643C17.9558 4.63645 17.4278 4.55204 16.9174 4.64783L15.1803 0.251047C15.1559 0.190789 15.1172 0.13726 15.0675 0.0949799C15.0178 0.0527002 14.9586 0.0229118 14.8949 0.00813055C14.8322 -0.00430914 14.7675 -0.00277227 14.7054 0.0126303C14.6434 0.0280329 14.5855 0.0569172 14.5361 0.0971998L7.88135 5.76524L2.57225 7.85432C2.07098 8.05281 1.66892 8.43981 1.45358 8.93113C1.23823 9.42245 1.22701 9.97832 1.42236 10.4778L1.561 10.8422L1.24294 10.9636C0.875315 11.1179 0.582749 11.4084 0.42741 11.7734C0.34424 11.9595 0.30127 12.1608 0.30127 12.3645C0.30127 12.5681 0.34424 12.7694 0.42741 12.9556L0.851486 14.0082C0.926127 14.1904 1.03674 14.3559 1.1768 14.4949C1.31686 14.634 1.48354 14.7438 1.66701 14.8179C1.85899 14.9047 2.06772 14.9489 2.27866 14.9475C2.45303 14.9557 2.62738 14.931 2.79245 14.8746L3.1105 14.7531L3.21652 15.0123C3.36531 15.3916 3.62671 15.7171 3.96606 15.9456C4.30541 16.1741 4.7067 16.2947 5.1167 16.2916C5.36821 16.3114 5.62109 16.2783 5.85884 16.1944L6.01379 16.1054L8.06892 21.3767C8.18322 21.6679 8.38412 21.9176 8.6449 22.0926C8.90568 22.2676 9.21397 22.3597 9.52872 22.3564C9.72292 22.3567 9.91489 22.3153 10.0914 22.235L11.2495 21.7896C11.6171 21.6354 11.9097 21.3449 12.065 20.9799C12.1456 20.7945 12.1871 20.5947 12.1871 20.3928C12.1871 20.1909 12.1456 19.9912 12.065 19.8058L9.98542 14.575L11.0456 14.162H11.0945L19.9349 13.7653C20 13.7656 20.0642 13.7493 20.1212 13.7182C20.1783 13.687 20.2264 13.6419 20.2611 13.5871C20.2976 13.5329 20.3204 13.4707 20.3275 13.4059C20.3346 13.341 20.3258 13.2754 20.3019 13.2147L18.5077 8.69643ZM2.54779 14.073C2.46227 14.1127 2.36901 14.1333 2.27458 14.1333C2.18016 14.1333 2.08689 14.1127 2.00138 14.073C1.91293 14.0397 1.83284 13.9876 1.76665 13.9205C1.70047 13.8534 1.64977 13.7728 1.61808 13.6843L1.19401 12.6074C1.15745 12.5216 1.13861 12.4293 1.13861 12.3361C1.13861 12.2429 1.15745 12.1507 1.19401 12.0649C1.2748 11.893 1.41731 11.7573 1.59362 11.6843L1.78934 11.6114L2.75167 14.0001L2.54779 14.073ZM11.331 20.6722C11.2896 20.7606 11.2307 20.8398 11.1579 20.9052C11.085 20.9705 10.9997 21.0207 10.907 21.0528L9.81415 21.4738C9.72585 21.5139 9.62989 21.5346 9.5328 21.5346C9.4357 21.5346 9.33975 21.5139 9.25144 21.4738C9.16244 21.4392 9.08208 21.3857 9.0159 21.3172C8.94972 21.2487 8.89931 21.1668 8.86814 21.0771L6.78039 15.8787L9.22697 14.8746L11.2984 20.1135C11.382 20.2884 11.3937 20.4888 11.331 20.6722ZM18.5729 6.27537C18.6917 6.55054 18.7186 6.85626 18.6496 7.1477C18.5806 7.43914 18.4194 7.70097 18.1896 7.89481L17.211 5.46565C17.4942 5.44593 17.7767 5.513 18.0203 5.65781C18.2638 5.80263 18.4567 6.01819 18.5729 6.27537ZM5.5734 15.3847C5.27164 15.5012 4.93565 15.4942 4.63908 15.3652C4.34252 15.2362 4.10956 14.9957 3.99127 14.6965L2.19711 10.1944C2.07515 9.89583 2.07515 9.56182 2.19711 9.26324C2.25914 9.11304 2.35107 8.97682 2.46738 8.86273C2.58368 8.74864 2.72199 8.65903 2.874 8.59926L7.85688 6.66403L10.5155 13.4576L5.5734 15.3847ZM11.3718 13.3118L8.57455 6.25917L14.6584 1.07696L16.2079 5.12556C16.2079 5.12556 16.2079 5.17415 16.2079 5.19844L17.6351 8.76931L19.2661 13.0608L11.3718 13.3118Z" fill="#ABB1BA"/>
</svg>
