<svg width="62" height="61" viewBox="0 0 62 61" fill="none" xmlns="http://www.w3.org/2000/svg">
<path d="M31.1267 0.158325C25.1429 0.158325 19.2935 1.93273 14.3181 5.25715C9.34279 8.58157 5.46498 13.3067 3.17508 18.835C0.885179 24.3633 0.286037 30.4465 1.45342 36.3153C2.6208 42.1842 5.50227 47.575 9.73346 51.8062C13.9646 56.0374 19.3555 58.9188 25.2243 60.0862C31.0931 61.2536 37.1763 60.6545 42.7046 58.3646C48.233 56.0747 52.9581 52.1969 56.2825 47.2215C59.6069 42.2462 61.3813 36.3967 61.3813 30.4129C61.3813 22.3889 58.1938 14.6935 52.5199 9.0197C46.8461 3.34586 39.1507 0.158325 31.1267 0.158325ZM19.7923 37.5253H17.9181C17.1782 37.5253 16.9316 37.2787 16.9316 36.5388V29.8211C16.9104 29.6142 16.9352 29.4051 17.0043 29.209C17.0733 29.0128 17.1849 28.8343 17.331 28.6863C17.4772 28.5383 17.6542 28.4244 17.8495 28.3529C18.0448 28.2813 18.2534 28.2538 18.4606 28.2723H19.7726C19.8022 31.3797 19.7923 34.4476 19.7923 37.5253ZM41.0209 39.4292C41.0427 39.6414 41.0168 39.8558 40.9451 40.0567C40.8734 40.2576 40.7576 40.4399 40.6063 40.5903C40.4549 40.7407 40.2719 40.8553 40.0705 40.9258C39.8692 40.9963 39.6546 41.0208 39.4425 40.9976C38.9394 40.9976 38.4561 40.9976 37.9234 40.9976C37.3907 40.9976 37.4696 41.1259 37.4696 41.4613C37.4696 42.6549 37.4696 43.8386 37.4696 45.0224C37.5025 45.2467 37.4826 45.4757 37.4116 45.691C37.3405 45.9064 37.2203 46.1022 37.0605 46.2631C36.9006 46.4239 36.7055 46.5453 36.4905 46.6176C36.2756 46.6899 36.0468 46.7111 35.8222 46.6796H34.7174C34.5173 46.6868 34.318 46.6522 34.132 46.5779C33.9461 46.5037 33.7777 46.3916 33.6375 46.2486C33.4973 46.1057 33.3885 45.9351 33.318 45.7477C33.2475 45.5604 33.2168 45.3604 33.2279 45.1605C33.2279 43.9274 33.2279 42.6845 33.2279 41.4514C33.2279 41.0864 33.1095 40.9976 32.7642 40.9976C31.6495 40.9976 30.525 40.9976 29.4103 40.9976C29.0453 40.9976 28.9565 41.1259 28.9565 41.4711C28.9565 42.7042 28.9565 43.9373 28.9565 45.1802C28.969 45.3757 28.9405 45.5717 28.8726 45.7554C28.8047 45.9392 28.699 46.1067 28.5623 46.2471C28.4256 46.3874 28.2611 46.4976 28.0792 46.5704C27.8973 46.6432 27.7022 46.677 27.5064 46.6698C27.0625 46.6698 26.6186 46.6698 26.1846 46.6698C25.9965 46.6739 25.8096 46.6396 25.6352 46.5689C25.4609 46.4983 25.3029 46.3927 25.1708 46.2588C25.0387 46.1248 24.9354 45.9653 24.8671 45.7901C24.7989 45.6148 24.7672 45.4274 24.7739 45.2394C24.7739 43.9833 24.7739 42.7305 24.7739 41.481C24.7739 41.116 24.6851 40.968 24.2906 40.9878C23.896 41.0075 23.2153 40.9878 22.6728 40.9878C22.4814 40.9962 22.2904 40.9646 22.1118 40.8952C21.9333 40.8258 21.7712 40.72 21.6357 40.5846C21.5003 40.4491 21.3945 40.287 21.3251 40.1085C21.2557 39.9299 21.2241 39.7389 21.2325 39.5475C21.2325 38.8767 21.2325 38.1961 21.2325 37.5154C21.2325 34.4377 21.2325 31.3698 21.2325 28.2921H21.8441H41.0505V37.4957C41.0406 38.1369 41.0406 38.788 41.0209 39.4292ZM41.376 15.478C40.5671 16.2968 39.7483 17.0958 38.9394 17.9047C39.5305 18.7695 40.0266 19.6956 40.4191 20.6668C40.8877 22.1147 41.0948 23.6346 41.0307 25.1551C41.0307 25.382 40.9123 25.4511 40.7151 25.4412H40.4093C34.2143 25.4412 28.0194 25.4412 21.8244 25.4412C21.2917 25.4412 21.2128 25.2834 21.2029 24.7901C21.0624 22.393 21.7598 20.0216 23.1759 18.0822C23.209 18.024 23.2323 17.9606 23.2449 17.8948C22.436 17.0859 21.6074 16.277 20.7985 15.4583C20.4039 15.0637 20.3842 14.6691 20.7097 14.3534C21.0353 14.0378 21.4002 14.0674 21.785 14.4422C22.584 15.2412 23.3732 16.06 24.1722 16.859C24.7937 16.4645 25.3263 15.9515 25.9577 15.5668C27.751 14.4677 29.8487 13.9706 31.9446 14.1481C34.0404 14.3255 36.0247 15.1683 37.6077 16.5532L37.9628 16.8294L40.3501 14.4225C40.7545 14.0279 41.159 13.9983 41.4648 14.314C41.5447 14.3916 41.6066 14.4858 41.6461 14.59C41.6855 14.6941 41.7016 14.8057 41.6931 14.9168C41.6846 15.0279 41.6518 15.1357 41.597 15.2327C41.5422 15.3297 41.4668 15.4134 41.376 15.478ZM44.3945 37.4957C43.7533 37.4957 43.1023 37.4957 42.4216 37.4957V28.2921H43.7435C43.9419 28.2766 44.1413 28.3033 44.3286 28.3704C44.516 28.4375 44.687 28.5435 44.8305 28.6814C44.9739 28.8192 45.0866 28.9859 45.1611 29.1704C45.2356 29.355 45.2702 29.5532 45.2626 29.752C45.2626 32.0505 45.2626 34.3588 45.2626 36.6572C45.2626 37.2096 44.9963 37.476 44.3945 37.4957Z" fill="#A4A4A6"/>
</svg>
