<svg width="61" height="23" viewBox="0 0 61 23" fill="none" xmlns="http://www.w3.org/2000/svg">
<path fill-rule="evenodd" clip-rule="evenodd" d="M34.9286 0.884615H11.9493C5.85751 0.884615 0.919174 5.63729 0.919174 11.5C0.919174 17.3627 5.85751 22.1154 11.9493 22.1154H34.9286C41.0203 22.1154 45.9587 17.3627 45.9587 11.5C45.9587 5.63728 41.0203 0.884615 34.9286 0.884615ZM11.9493 0C5.34987 0 0 5.14873 0 11.5C0 17.8513 5.34986 23 11.9493 23H34.9286C41.528 23 46.8779 17.8513 46.8779 11.5C46.8779 5.14873 41.528 0 34.9286 0H11.9493Z" fill="#9298A5"/>
<path fill-rule="evenodd" clip-rule="evenodd" d="M36.3074 8.84616H27.1157C25.8466 8.84616 24.8177 9.8363 24.8177 11.0577C24.8177 12.2791 25.8466 13.2692 27.1157 13.2692H36.3074C37.5765 13.2692 38.6053 12.2791 38.6053 11.0577C38.6053 9.8363 37.5765 8.84616 36.3074 8.84616ZM27.1157 7.96155C25.3389 7.96155 23.8986 9.34774 23.8986 11.0577C23.8986 12.7677 25.3389 14.1539 27.1157 14.1539H36.3074C38.0842 14.1539 39.5245 12.7677 39.5245 11.0577C39.5245 9.34774 38.0842 7.96155 36.3074 7.96155H27.1157Z" fill="#9298A5"/>
<path d="M31.252 10.6154H35.8478V11.5H31.252V10.6154Z" fill="#D9D9D9"/>
<path d="M50.5546 10.6157H51.4737V11.5003H50.5546V10.6157Z" fill="#D9D9D9"/>
<path d="M53.3121 10.6157H54.2313V11.5003H53.3121V10.6157Z" fill="#D9D9D9"/>
<path d="M56.0696 10.6157H56.9888V11.5003H56.0696V10.6157Z" fill="#D9D9D9"/>
<path fill-rule="evenodd" clip-rule="evenodd" d="M59.7001 11.3483L57.4252 9.15896L58.0752 8.53344L61 11.3483L58.0752 14.1631L57.4252 13.5376L59.7001 11.3483Z" fill="#D9D9D9"/>
</svg>
