<svg width="116" height="227" viewBox="0 0 116 227" fill="none" xmlns="http://www.w3.org/2000/svg">
<path d="M99.4171 182.788C96.263 207.731 75.0471 226.433 49.9057 226.433C22.3436 226.433 -1.72121e-05 204.089 -1.96217e-05 176.527L-3.02459e-05 55.0002C-3.29014e-05 24.6245 24.6243 0.000237441 55 0.000234786L60.1385 0.000234336C93.2525 0.000231441 118.858 29.0479 114.704 61.9003L99.4171 182.788Z" fill="url(#paint0_radial_197_622)"/>
<path d="M99.4171 182.788C96.263 207.731 75.0471 226.433 49.9057 226.433C22.3436 226.433 -1.72121e-05 204.089 -1.96217e-05 176.527L-3.02459e-05 55.0002C-3.29014e-05 24.6245 24.6243 0.000237441 55 0.000234786L60.1385 0.000234336C93.2525 0.000231441 118.858 29.0479 114.704 61.9003L99.4171 182.788Z" fill="url(#paint1_radial_197_622)"/>
<defs>
<radialGradient id="paint0_radial_197_622" cx="0" cy="0" r="1" gradientUnits="userSpaceOnUse" gradientTransform="translate(1410.31 246.539) rotate(49.8822) scale(207.206 238.587)">
<stop stop-color="#09D6E2"/>
<stop offset="1" stop-color="#202439"/>
</radialGradient>
<radialGradient id="paint1_radial_197_622" cx="0" cy="0" r="1" gradientUnits="userSpaceOnUse" gradientTransform="translate(1410.31 246.539) rotate(49.8822) scale(207.206 238.587)">
<stop stop-color="#09D6E2"/>
<stop offset="1" stop-color="#202439"/>
</radialGradient>
</defs>
</svg>
