<svg width="18" height="15" viewBox="0 0 18 15" fill="none" xmlns="http://www.w3.org/2000/svg">
<path d="M17.0821 6.99215L13.2957 0.507851C13.2045 0.353418 13.074 0.225267 12.917 0.136163C12.7601 0.047059 12.5823 0.000112505 12.4012 0L4.82098 0C4.63996 0.000112505 4.46213 0.047059 4.3052 0.136163C4.14827 0.225267 4.01772 0.353418 3.92656 0.507851L0.140153 6.99215C0.048391 7.14606 0 7.3214 0 7.5C0 7.6786 0.048391 7.85395 0.140153 8.00785L3.92656 14.4848C4.01735 14.6401 4.14762 14.7693 4.30449 14.8597C4.46135 14.95 4.63938 14.9984 4.82098 15H12.4012C12.5828 14.9984 12.7609 14.95 12.9177 14.8597C13.0746 14.7693 13.2049 14.6401 13.2957 14.4848L17.0821 8.00785C17.1738 7.85395 17.2222 7.6786 17.2222 7.5C17.2222 7.3214 17.1738 7.14606 17.0821 6.99215ZM6.84835 10.4735H5.90175L4.23215 7.83121C3.97873 7.43376 3.77003 7.09519 3.5986 6.77134C3.5986 7.18351 3.5986 7.61776 3.5986 8.14769V10.4735H2.65945V5.08587H3.64332L5.35764 7.7208C5.56634 8.05201 5.76013 8.3685 5.93156 8.67763C5.93156 8.26546 5.93156 7.84593 5.93156 7.36752V5.08587H6.84835V10.4735ZM10.7615 5.96909H8.65211V7.316H10.5751V8.18449H8.65211V10.4735H7.65333V5.08587H10.7466L10.7615 5.96909ZM14.9056 5.96909H13.3404V10.4661H12.3193V5.97645H10.7689V5.08587H14.8907L14.9056 5.96909Z" fill="url(#paint0_linear_197_512)"/>
<defs>
<linearGradient id="paint0_linear_197_512" x1="12.9167" y1="-8.9407e-07" x2="4.17896" y2="0.759432" gradientUnits="userSpaceOnUse">
<stop stop-color="#31E1F9"/>
<stop offset="1" stop-color="#24A8E1"/>
</linearGradient>
</defs>
</svg>
